PathFileType	4	(X/Y/Z)	s09c0403.trc
DataRate	CameraRate	NumFrames	NumMarkers	Units	OrigDataRate	OrigDataStartFrame	OrigNumFrames
200	200	7	50	mm	200	1750	2000
Frame#	Time	racr			lacr			c7			jug			rlel			rdr			llel			ldr			s2			lic			ric			lasi			rasi			rpsi			lpsi			rgt			lgt			rth1			rth2			rth3			rth4			rlfc			rmfc			rsh1			rsh2			rsh3			rsh4			rlmal			rmmal			rcal			rtoe			rmt5			lth1			lth2			lth4			lth3			llfc			lmfc			llmal			lmmal			lcal			lmt5			lsh1			lsh2			lsh3			lsh4			ltoe			SBIKE			LBIKE			RBIKE			
		X1	Y1	Z1	X2	Y2	Z2	X3	Y3	Z3	X4	Y4	Z4	X5	Y5	Z5	X6	Y6	Z6	X7	Y7	Z7	X8	Y8	Z8	X9	Y9	Z9	X10	Y10	Z10	X11	Y11	Z11	X12	Y12	Z12	X13	Y13	Z13	X14	Y14	Z14	X15	Y15	Z15	X16	Y16	Z16	X17	Y17	Z17	X18	Y18	Z18	X19	Y19	Z19	X20	Y20	Z20	X21	Y21	Z21	X22	Y22	Z22	X23	Y23	Z23	X24	Y24	Z24	X25	Y25	Z25	X26	Y26	Z26	X27	Y27	Z27	X28	Y28	Z28	X29	Y29	Z29	X30	Y30	Z30	X31	Y31	Z31	X32	Y32	Z32	X33	Y33	Z33	X34	Y34	Z34	X35	Y35	Z35	X36	Y36	Z36	X37	Y37	Z37	X38	Y38	Z38	X39	Y39	Z39	X40	Y40	Z40	X41	Y41	Z41	X42	Y42	Z42	X43	Y43	Z43	X44	Y44	Z44	X45	Y45	Z45	X46	Y46	Z46	X47	Y47	Z47	X48	Y48	Z48	X49	Y49	Z49	X50	Y50	Z50	
1750	8.7500	744.335592	1217.023062	-27.010498	755.518180	1229.112272	-392.139653	758.933229	1284.813507	-206.817345	740.109996	1150.586867	-211.460625	546.848866	1061.793810	53.298084	687.380370	906.141115	-51.529585	551.231669	1093.464185	-535.386816	677.673771	905.170928	-450.864285	261.999120	1167.110463	-278.226694	418.585767	1072.578700	-380.638683	388.204243	1161.922415	-108.713666	428.259025	1045.409392	-360.015186	422.922047	1098.821912	-115.367841	287.981915	1199.615754	-219.636387	306.148430	1187.315939	-328.173046	358.473755	1045.520247	-58.731936	325.747628	984.030216	-431.696825	474.901674	966.051781	-75.841442	556.318594	937.515107	-91.773728	609.501051	868.703469	-97.597476	570.863182	959.961920	-117.473077	662.889912	781.447948	-134.140961	636.145030	766.861848	-234.989051	573.023404	740.272469	-98.319657	508.571543	677.472344	-103.493801	425.269824	654.369081	-93.736862	521.312925	655.386702	-134.583408	333.256918	600.836814	-84.329248	335.912208	607.960235	-160.962452	247.262612	627.736126	-116.318001	435.488008	440.709633	-133.724484	367.966113	484.255876	-65.406439	331.398116	855.505151	-432.752545	360.352267	776.020484	-424.817425	395.552684	778.020972	-410.655599	343.469812	687.017780	-417.756534	341.179707	594.677874	-397.362990	345.265945	575.993439	-298.629110	184.994846	264.004166	-412.703793	209.334445	266.111068	-345.745389	113.614815	256.240029	-374.515104	251.195339	147.571000	-430.874736	292.104071	508.846621	-422.906312	279.933722	423.203301	-417.159508	225.162779	353.016603	-416.104261	305.811599	413.819227	-388.003534	343.311213	130.560511	-361.923435	-64.772038	851.157708	-241.540935	21.078666	83.679657	-442.310196	21.097902	84.016542	-44.017848	
1751	8.7550	744.312797	1216.148995	-25.508187	754.877643	1229.480132	-390.745627	758.291410	1284.441777	-205.662658	739.495155	1150.215010	-210.308044	546.385692	1061.233126	54.102494	687.109076	906.322020	-51.302653	551.697508	1093.636587	-535.066925	676.360104	903.340514	-449.154391	261.798903	1167.292364	-278.422761	420.309375	1068.799655	-378.304783	387.387888	1161.990755	-108.569858	428.561751	1045.776749	-359.640856	422.319152	1099.152594	-114.964997	287.416125	1199.753322	-219.283702	306.188626	1188.137737	-328.063402	358.318175	1044.915867	-58.786803	325.444229	984.663226	-432.070819	475.195796	966.490857	-75.769993	556.949571	938.929177	-91.289089	610.839764	870.688153	-97.063872	571.549810	961.526897	-116.723880	665.602800	784.761430	-133.556334	639.790448	768.862364	-234.115996	575.361206	741.889336	-97.439055	512.368002	677.597274	-102.636194	429.430650	652.823045	-93.211059	526.551070	656.299917	-132.781660	338.667457	597.272138	-84.143125	340.993896	604.759022	-160.726193	251.254575	621.651743	-116.154374	446.410704	441.493344	-133.779653	377.426396	482.362204	-65.366758	331.133575	855.913087	-433.446108	361.211699	776.410400	-429.266428	395.715141	778.427095	-412.304266	343.512921	687.358302	-418.336253	341.569406	594.474076	-398.427795	346.157078	575.955735	-299.635955	176.926325	268.039799	-412.290545	201.602483	269.651179	-345.234036	105.357113	261.335607	-373.933729	241.232021	150.707371	-430.677111	290.359269	509.963609	-423.521035	275.867427	424.665868	-417.420222	219.287626	356.281394	-416.108638	301.731627	414.676722	-388.492657	333.115448	132.103859	-361.943007	-64.799102	851.145036	-241.506235	21.095398	83.681143	-442.301555	21.109272	84.002609	-44.002928	
1752	8.7600	744.485214	1215.230593	-24.168206	754.162034	1229.730219	-389.595008	757.823406	1284.004924	-204.482396	738.741260	1149.758289	-209.723127	545.966163	1060.699220	54.773617	686.802409	906.604740	-51.731169	552.002314	1093.848652	-534.700093	666.740771	896.766626	-435.716208	261.607804	1167.872660	-277.825530	421.850264	1065.614951	-376.130795	386.601739	1162.217349	-108.353998	428.429620	1048.036143	-359.845860	421.850954	1099.600333	-114.667225	287.006083	1200.106517	-218.606155	305.997345	1188.825861	-327.348327	358.264169	1044.359045	-59.166017	325.120509	985.486448	-432.332703	475.417476	966.658453	-75.772787	557.252184	939.928260	-90.935140	611.651738	872.166109	-96.637348	571.882946	962.862534	-116.139067	667.520543	787.463099	-133.248606	641.712928	769.793239	-232.432275	576.991379	742.632254	-96.578763	515.330009	677.124693	-101.870450	432.989410	650.436965	-92.591503	529.842314	655.616693	-132.045523	343.658826	592.682367	-83.808779	346.130803	601.401779	-161.057159	255.162352	614.473924	-115.859959	457.000956	441.732488	-133.801361	386.466565	479.831721	-65.124201	331.529051	856.581436	-434.048228	360.831007	776.992980	-427.189161	396.652466	779.349402	-413.771745	344.707500	688.022519	-418.703184	343.029908	594.625726	-399.501062	348.281880	576.222296	-300.640772	169.511796	272.795405	-411.762336	194.528236	273.897466	-344.608998	97.467870	267.269995	-373.439454	231.590197	154.506425	-430.494469	289.473133	511.521515	-424.186525	272.569381	426.601201	-417.686294	214.068372	359.981906	-415.787009	298.424192	415.997958	-388.957877	323.133129	134.049231	-361.855072	-64.829010	851.167830	-241.443912	21.073850	83.701638	-442.287790	21.104626	84.024572	-44.003498	
1753	8.7650	744.650414	1214.020694	-23.280910	753.487972	1229.844433	-388.650523	757.547494	1283.546593	-203.451124	738.057888	1149.464447	-209.072037	545.725434	1060.054101	55.391086	686.566424	906.803905	-51.804202	552.143048	1093.992646	-534.314991	666.911936	896.776669	-435.879964	261.321437	1168.526397	-276.943367	423.180015	1063.116270	-374.164744	386.013525	1162.517825	-108.075318	428.960583	1049.147371	-359.887392	421.436995	1100.036670	-114.389791	286.672483	1200.752718	-217.558302	306.011940	1189.964961	-327.727775	358.219740	1043.878163	-58.932459	324.855988	986.597802	-432.524541	475.342998	966.731655	-75.561368	557.303922	940.501119	-90.536712	611.963806	872.925979	-96.391300	571.963262	963.560721	-115.528447	668.409853	789.297967	-132.831172	642.645229	770.387511	-231.455555	578.045729	742.639748	-95.798611	518.732354	675.000611	-101.286617	435.949644	647.540579	-91.815611	532.749684	654.617167	-131.139431	348.264920	587.209466	-83.428875	350.174295	596.474601	-160.775551	258.819692	606.290460	-115.451515	467.444858	441.580327	-133.485086	395.182443	476.453168	-64.977598	332.434393	857.455826	-434.250773	363.076596	776.859873	-430.478299	398.644638	780.874700	-414.899596	346.995045	689.050488	-418.975344	345.373975	595.071246	-400.200075	352.551248	576.895332	-301.907137	162.810226	278.369604	-411.225942	188.147835	278.884637	-343.955120	90.801980	274.410015	-372.765852	222.373961	158.949810	-430.268577	289.572220	513.449249	-424.845418	270.214093	429.195745	-417.914139	209.735316	364.208601	-415.529370	295.943052	417.739986	-389.429765	313.460573	136.201089	-361.607137	-64.837734	851.200143	-241.332086	21.059508	83.739401	-442.285844	21.127682	84.020037	-43.967052	
1754	8.7700	744.891263	1212.741748	-22.324632	752.804176	1229.925373	-387.887361	757.438128	1283.183437	-202.385482	737.259440	1148.961846	-208.733080	545.538416	1059.352951	56.008130	686.325936	906.918316	-52.146272	552.062637	1094.050286	-533.900375	667.988353	897.457904	-437.213552	260.941662	1169.443622	-275.833247	424.270211	1061.395536	-372.454596	385.584726	1162.773734	-107.598993	429.497760	1051.117161	-359.607654	421.071633	1100.360743	-114.196993	286.471901	1201.444653	-216.376336	305.733658	1191.225318	-326.722435	358.217401	1043.455275	-58.592954	324.664428	987.997133	-432.584406	474.972560	966.557119	-75.348832	556.987078	940.712537	-90.033421	611.766649	873.244770	-95.882722	571.658261	963.905900	-114.910306	668.419245	790.117395	-132.336832	642.545516	770.420870	-230.529627	578.693112	741.666404	-95.045493	520.891063	672.919258	-100.726405	438.708021	643.529556	-91.248226	535.442353	652.693680	-130.389699	352.514851	581.194301	-83.060610	354.011398	590.579048	-160.313217	262.145128	597.174960	-115.080340	477.180429	440.811211	-133.667290	403.679317	472.616915	-64.867872	333.961740	858.644136	-434.269035	365.127275	777.912408	-430.409054	401.241768	782.731968	-415.926102	350.372298	690.357181	-419.105777	348.816260	596.026195	-401.292643	357.152712	577.648071	-303.303715	156.993407	284.711497	-410.755370	182.614822	284.571807	-343.382729	85.150215	282.463478	-372.045322	213.576328	163.973476	-430.091174	290.674328	515.596730	-425.571989	268.760812	432.013856	-418.207128	206.368732	368.970975	-415.358836	294.382228	419.910422	-389.963375	304.015081	138.792275	-361.328651	-64.837199	851.243616	-241.198569	21.081248	83.799346	-442.272733	21.101860	84.056825	-43.976908	
1755	8.7750	745.148527	1211.222321	-21.724068	752.037010	1229.947002	-387.371351	757.516822	1282.719967	-201.460632	736.538011	1148.497366	-208.379558	545.332806	1058.654248	56.576949	686.133047	906.915718	-52.591086	551.831582	1094.040717	-533.463883	668.049144	897.428730	-437.213420	260.663884	1170.517373	-274.558078	425.092433	1060.544798	-371.048316	385.238406	1163.028802	-106.863437	429.711904	1053.865363	-359.137663	420.656704	1100.667392	-113.990826	286.176566	1202.231145	-214.960301	305.340359	1192.431841	-325.362683	358.214447	1043.116176	-58.182325	324.593065	989.593361	-432.442627	474.245230	966.215204	-75.093471	556.152387	940.575264	-89.477879	611.233567	873.129258	-95.516616	571.053274	963.800394	-114.292094	667.132873	790.294952	-131.017230	641.723088	770.104088	-229.723004	578.910187	739.755560	-94.266843	522.532058	669.823151	-100.134028	441.110749	638.567085	-90.744854	537.646391	650.284756	-129.549142	356.395304	574.423126	-82.805679	357.385466	583.793349	-159.980962	265.369421	587.017172	-114.629586	486.222468	439.592026	-133.987174	411.904177	468.156858	-64.793643	336.090815	859.910307	-434.194711	368.059520	781.288457	-428.377394	404.536787	784.785813	-416.681150	354.773298	691.906449	-419.252480	353.180594	597.229163	-402.370875	362.872891	578.594929	-304.891600	152.141168	291.802336	-410.405347	178.053885	290.772250	-342.963426	80.331364	291.513670	-371.567891	204.993274	169.517406	-430.236937	292.804585	518.128459	-426.386520	268.291679	435.249198	-418.540448	203.970207	374.223587	-415.275173	293.767640	422.692914	-390.879298	294.932116	141.373629	-361.008239	-64.825593	851.276524	-241.067859	21.081011	83.892990	-442.294687	21.094174	84.046772	-43.978990	
1756	8.7800	745.493866	1209.595790	-21.244866	751.377669	1229.941428	-387.050108	757.626033	1282.233943	-200.777336	735.823031	1148.072807	-208.226676	545.159274	1057.900820	57.079238	685.965410	906.849340	-52.883237	551.477346	1094.014799	-533.125315	668.165288	897.390182	-437.202282	260.479460	1171.540900	-273.102412	425.618203	1060.655859	-369.993901	384.999835	1163.245603	-106.050793	429.022751	1055.433870	-361.052594	420.176975	1100.902706	-113.702337	285.886165	1203.166308	-213.346226	304.931259	1193.771631	-324.016901	358.145040	1042.819900	-57.680413	324.628488	991.411387	-432.251401	473.266679	965.483820	-75.017712	555.023147	939.740490	-89.172401	610.213811	872.531723	-95.187621	570.075455	963.221404	-113.612429	665.818304	789.283943	-130.418414	640.435614	769.327215	-228.995496	578.761938	736.932325	-93.427847	523.850709	665.754438	-99.622090	443.168195	632.764913	-90.283289	539.521040	646.767392	-128.978748	360.219437	566.617366	-82.338742	360.498118	576.246360	-159.521716	268.356273	575.967509	-114.089401	495.209149	437.583600	-133.583029	419.626156	462.960775	-64.631992	338.748363	861.334495	-433.943833	371.901505	783.209317	-428.292274	408.402382	787.242135	-417.178272	360.050227	693.639588	-419.309703	358.453118	598.667791	-403.549404	369.373426	579.393355	-306.705081	148.234127	299.424327	-410.197481	174.021236	297.754410	-342.577965	76.568385	301.379172	-371.178284	197.174119	175.620249	-430.174095	295.941869	520.897865	-427.223634	268.793614	438.814372	-418.938036	202.494715	380.142694	-415.436300	293.931434	425.669186	-391.380223	285.934698	144.662037	-361.666237	-64.793482	851.334596	-240.929631	21.074478	83.965057	-442.297855	21.103009	84.024472	-43.959793	
